Coordinates
version=1
nRows=26
nColumns=24
inDegrees=yes

Units are S.I. units (second, meters, Newtons, ...)
If the header above contains a line with 'inDegrees', this indicates whether rotational values are in degrees (yes) or radians (no).

endheader
time	pelvis_tilt	pelvis_list	pelvis_rotation	pelvis_tx	pelvis_ty	pelvis_tz	hip_flexion_r	hip_adduction_r	hip_rotation_r	knee_angle_r	ankle_angle_r	subtalar_angle_r	mtp_angle_r	hip_flexion_l	hip_adduction_l	hip_rotation_l	knee_angle_l	ankle_angle_l	subtalar_angle_l	mtp_angle_l	lumbar_extension	lumbar_bending	lumbar_rotation
      0.52000000	      6.12535386	     -1.10948921	      2.48837330	     -0.71655013	      0.74206415	      0.31067241	      1.18101567	      4.61885043	     -9.69140563	    -20.03693012	     20.01356398	     -2.38183973	      0.00000000	     25.34924758	     -6.75027237	     -7.39776021	    -67.47658164	     -3.68582421	    -20.61056789	      0.00000000	      0.00000000	      0.00000000	      0.00000000
      0.52666667	      6.49940074	     -0.91945153	      2.01707748	     -0.70950459	      0.74242656	      0.31044739	      0.13785305	      4.35336363	     -9.48492544	    -20.03231480	     20.68587874	     -1.76828764	      0.00000000	     25.39742674	     -6.55322291	     -7.83998923	    -65.93003103	     -2.92185032	    -19.62182469	      0.00000000	      0.00000000	      0.00000000	      0.00000000
      0.53333333	      6.50035341	     -1.08340959	      1.76034073	     -0.70281022	      0.74210740	      0.31003569	     -0.38767718	      4.46837446	     -9.49919355	    -20.11696288	     20.88677546	     -1.78753582	      0.00000000	     26.05846647	     -6.56975096	     -7.82382035	    -64.48128088	     -2.86078080	    -19.55461257	      0.00000000	      0.00000000	      0.00000000	      0.00000000
      0.54000000	      6.60665091	     -0.75142616	      1.23621070	     -0.69570210	      0.74220143	      0.30976744	     -1.22432509	      4.07803536	     -8.92870064	    -19.94793167	     21.49543125	     -1.59068567	      0.00000000	     26.16553885	     -6.14640435	     -8.30192358	    -62.47600423	     -2.32746931	    -19.10190832	      0.00000000	      0.00000000	      0.00000000	      0.00000000
      0.54666667	      6.69986973	     -0.73011795	      0.89838476	     -0.68888009	      0.74194413	      0.30939286	     -1.92772948	      4.00656715	     -8.69509291	    -19.92312057	     21.92125321	     -1.50489624	      0.00000000	     26.42628408	     -5.98619433	     -8.44226714	    -60.53441321	     -1.99087012	    -18.85676619	      0.00000000	      0.00000000	      0.00000000	      0.00000000
      0.55333333	      6.81927115	     -0.75159370	      0.54558694	     -0.68204571	      0.74164362	      0.30902250	     -2.65149236	      3.96413485	     -8.47889615	    -19.91122361	     22.31957850	     -1.42053768	      0.00000000	     26.57850141	     -5.88466082	     -8.58832117	    -58.43029773	     -1.68567977	    -18.64014290	      0.00000000	      0.00000000	      0.00000000	      0.00000000
      0.56000000	      6.71488363	     -0.91483092	      0.35098619	     -0.67528091	      0.74096799	      0.30854182	     -3.15887030	      4.11583680	     -8.29008321	    -19.83059339	     22.64044142	     -1.39413406	      0.00000000	     27.01024220	     -5.85739723	     -8.50270818	    -56.28216834	     -1.46879546	    -18.56876035	      0.00000000	      0.00000000	      0.00000000	      0.00000000
      0.56666667	      6.91782377	     -0.91365120	     -0.03612985	     -0.66854345	      0.74060507	      0.30822376	     -3.92250640	      4.03314204	     -8.06139618	    -19.90156548	     23.03191761	     -1.38018762	      0.00000000	     26.88164161	     -5.76805768	     -8.74678034	    -53.81577149	     -1.15716630	    -18.37253653	      0.00000000	      0.00000000	      0.00000000	      0.00000000
      0.57333333	      6.79571585	     -1.13743237	     -0.22427117	     -0.66180318	      0.73973459	      0.30776916	     -4.38020997	      4.23535548	     -7.93427144	    -19.87640075	     23.33725928	     -1.38344037	      0.00000000	     27.18190443	     -5.80964258	     -8.63921447	    -51.37901314	     -0.91589803	    -18.26763888	      0.00000000	      0.00000000	      0.00000000	      0.00000000
      0.58000000	      6.80237409	     -1.24522033	     -0.50707603	     -0.65504606	      0.73900084	      0.30735174	     -4.92647876	      4.27290258	     -7.80411294	    -19.96230156	     23.65894639	     -1.44215863	      0.00000000	     27.16821103	     -5.80152140	     -8.77943373	    -48.67722034	     -0.61040625	    -18.04798032	      0.00000000	      0.00000000	      0.00000000	      0.00000000
      0.58666667	      6.90927864	     -1.40271019	     -0.77179427	     -0.64830971	      0.73828551	      0.30701096	     -5.57866462	      4.36676529	     -7.69191692	    -20.04947485	     23.96480540	     -1.42957069	      0.00000000	     26.99078730	     -5.87224932	     -8.95230138	    -45.88540007	     -0.28926510	    -17.65237252	      0.00000000	      0.00000000	      0.00000000	      0.00000000
      0.59333333	      6.75312333	     -1.85926141	     -0.89249947	     -0.64165658	      0.73705016	      0.30655486	     -5.92156052	      4.79514704	     -7.78032586	    -20.16887846	     24.22619177	     -1.44689081	      0.00000000	     27.22501143	     -6.19556612	     -8.84682017	    -43.23232507	     -0.16279025	    -17.43761677	      0.00000000	      0.00000000	      0.00000000	      0.00000000
      0.60000000	      7.06360341	     -1.83581267	     -1.23091383	     -0.63458205	      0.73661838	      0.30626032	     -6.90545817	      4.66961253	     -7.52838084	    -20.12589509	     24.55299716	     -1.29476120	      0.00000000	     26.48856355	     -6.13208494	     -9.35372213	    -40.00407529	      0.60722422	    -16.25393408	      0.00000000	      0.00000000	      0.00000000	      0.00000000
      0.60666667	      7.07687434	     -2.05809245	     -1.45933308	     -0.62762928	      0.73565803	      0.30586956	     -7.48202634	      4.81070906	     -7.45956587	    -20.21715632	     24.80562761	     -1.25485885	      0.00000000	     26.19280606	     -6.26823723	     -9.62855488	    -36.93846436	      1.11309663	    -15.27677079	      0.00000000	      0.00000000	      0.00000000	      0.00000000
      0.61333333	      6.85520244	     -2.30404838	     -1.64227873	     -0.62065543	      0.73441577	      0.30535959	     -7.76499885	      4.97579862	     -7.43651449	    -20.38689117	     24.99230752	     -1.28315608	      0.00000000	     26.11042917	     -6.34384915	     -9.72822070	    -33.82597879	      1.39432504	    -14.60612066	      0.00000000	      0.00000000	      0.00000000	      0.00000000
      0.62000000	      7.09626693	     -2.46806175	     -2.00394797	     -0.61348730	      0.73364756	      0.30504115	     -8.57672602	      4.97933954	     -7.25358436	    -20.54891256	     25.30926128	     -1.03817239	      0.00000000	     25.36645139	     -6.48919570	    -10.36505557	    -30.66238764	      2.05217912	    -13.01640487	      0.00000000	      0.00000000	      0.00000000	      0.00000000
      0.62666667	      7.13581469	     -2.66479967	     -2.27394629	     -0.60623925	      0.73263008	      0.30456010	     -9.15555145	      5.02550769	     -7.15008980	    -20.74689319	     25.51567059	     -0.89657517	      0.00000000	     24.83183646	     -6.56642970	    -10.76835285	    -27.55737271	      2.56524636	    -11.63114600	      0.00000000	      0.00000000	      0.00000000	      0.00000000
      0.63333333	      7.22118439	     -2.86040419	     -2.55384210	     -0.59888823	      0.73161866	      0.30406241	     -9.77540239	      5.04280144	     -7.02895741	    -20.98843718	     25.71756225	     -0.68905788	      0.00000000	     24.21230473	     -6.62737038	    -11.19419479	    -24.54839898	      3.06891010	    -10.13918314	      0.00000000	      0.00000000	      0.00000000	      0.00000000
      0.64000000	      7.14892436	     -3.01366356	     -2.91859516	     -0.59144961	      0.73047777	      0.30353466	    -10.15517277	      4.98179519	     -6.79616751	    -21.36315096	     25.86891705	     -0.55152399	      0.00000000	     23.69770992	     -6.62439849	    -11.57558062	    -21.62040221	      3.30778860	     -9.02114363	      0.00000000	      0.00000000	      0.00000000	      0.00000000
      0.64666667	      7.29845200	     -3.17009170	     -3.26464265	     -0.58381235	      0.72954056	      0.30302150	    -10.82376823	      4.89514936	     -6.56172577	    -21.68767416	     26.05257734	     -0.19729688	      0.00000000	     22.93464009	     -6.62860550	    -12.03404737	    -18.92701614	      3.73391547	     -7.59479292	      0.00000000	      0.00000000	      0.00000000	      0.00000000
      0.65333333	      7.24611945	     -3.30415611	     -3.63737777	     -0.57615847	      0.72842432	      0.30244494	    -11.16826231	      4.77575694	     -6.26855934	    -22.19213279	     26.11010874	     -0.01802054	      0.00000000	     22.39955165	     -6.58328503	    -12.35585367	    -16.48025514	      3.89707555	     -6.63033784	      0.00000000	      0.00000000	      0.00000000	      0.00000000
      0.66000000	      7.39468079	     -3.41717164	     -4.04990959	     -0.56825969	      0.72752172	      0.30196006	    -11.77596713	      4.57767357	     -5.92756961	    -22.65956962	     26.19813323	      0.39230199	      0.00000000	     21.62999375	     -6.54305860	    -12.73554222	    -14.32300175	      4.21382009	     -5.52424857	      0.00000000	      0.00000000	      0.00000000	      0.00000000
      0.66666667	      7.19772916	     -3.74130688	     -4.24391804	     -0.56044230	      0.72620405	      0.30129193	    -11.93954770	      4.68480137	     -5.77611870	    -23.23402864	     26.10831833	      0.49470063	      0.00000000	     21.46379077	     -6.66712171	    -12.54049545	    -12.76556303	      4.37275599	     -5.11403924	      0.00000000	      0.00000000	      0.00000000	      0.00000000
      0.67333333	      7.61339402	     -3.56307214	     -4.81812587	     -0.55219886	      0.72581274	      0.30088283	    -12.72699723	      4.05963334	     -5.29346653	    -23.90525262	     26.07288713	      1.17328052	      0.00000000	     20.31147002	     -6.36337977	    -13.32537187	    -11.13369107	      4.67562050	     -4.03264565	      0.00000000	      0.00000000	      0.00000000	      0.00000000
      0.68000000	      7.50292885	     -3.72791844	     -5.09355961	     -0.54416201	      0.72474993	      0.30032043	    -12.86069211	      3.95217882	     -4.95454956	    -24.71871695	     25.74893871	      1.32761859	      0.00000000	     20.07015342	     -6.37606106	    -13.19525424	    -10.27388012	      4.83962003	     -3.83556748	      0.00000000	      0.00000000	      0.00000000	      0.00000000
      0.68666667	      7.53982955	     -3.63252449	     -5.74650147	     -0.53584267	      0.72414771	      0.30003906	    -13.05664032	      3.41880787	     -4.36000751	    -25.66954420	     25.37584911	      1.68715423	      0.00000000	     19.49793193	     -6.23056046	    -13.78869797	     -9.54640052	      4.89153502	     -3.73989865	      0.00000000	      0.00000000	      0.00000000	      0.00000000
